<svg width="83" height="24" viewBox="0 0 83 24" fill="none"  xmlns="http://www.w3.org/2000/svg">
<path d="M0.540148 18.7146V9.49221H12.0733V8.95276H0.540148V0.539286H12.8024V0H0V19.2539H12.9104V18.7146H0.540311H0.540148ZM23.3092 5.39318L18.5286 11.6764L13.8558 5.39334H13.1536L18.2044 12.081L12.6672 19.2537H13.3155L18.5283 12.4851L23.7682 19.2537H24.4433L18.8794 12.0807L23.9572 5.39302H23.3091L23.3092 5.39318ZM26.0641 24V15.3709H26.1181C26.4423 16.6293 27.0815 17.6406 28.0358 18.4047C28.9902 19.1686 30.2055 19.5507 31.682 19.5507C32.6363 19.5507 33.4827 19.3575 34.221 18.971C34.9592 18.5845 35.5759 18.0586 36.0711 17.3934C36.5662 16.7282 36.9444 15.9552 37.2056 15.0743C37.4666 14.1935 37.5972 13.2675 37.5972 12.2969C37.5972 11.2541 37.462 10.2922 37.1919 9.41144C36.9219 8.53049 36.5302 7.7664 36.0171 7.11932C35.5039 6.47208 34.8827 5.96856 34.1534 5.60925C33.4242 5.24962 32.6004 5.0698 31.682 5.0698C30.9798 5.0698 30.3271 5.17323 29.7239 5.37991C29.1207 5.58676 28.5851 5.87873 28.1169 6.25633C27.646 6.63683 27.2361 7.08695 26.9014 7.59111C26.5594 8.10353 26.2982 8.66531 26.1181 9.27662H26.0641V5.39318H25.524V24H26.0641ZM31.682 19.0381C29.9896 19.0381 28.63 18.4584 27.6037 17.2989C26.5773 16.1394 26.0641 14.4719 26.0641 12.2966C26.0641 11.3977 26.1902 10.5437 26.4423 9.73482C26.6944 8.92589 27.059 8.21569 27.5361 7.60455C28.0133 6.99324 28.6031 6.50785 29.3052 6.14838C30.0074 5.78874 30.7998 5.60893 31.682 5.60893C32.5824 5.60893 33.3702 5.78874 34.0454 6.14838C34.7206 6.50785 35.2789 6.99777 35.72 7.61798C36.1611 8.23819 36.4942 8.94839 36.7194 9.74825C36.9444 10.5483 37.0569 11.3977 37.0569 12.2966C37.0569 13.1057 36.9535 13.9102 36.7463 14.7101C36.5393 15.5101 36.2196 16.2292 35.7874 16.8676C35.3554 17.5056 34.8018 18.0269 34.1265 18.4315C33.4511 18.836 32.6363 19.0381 31.682 19.0381ZM40.5682 19.2539V11.4067C40.5682 10.6517 40.6762 9.91447 40.8924 9.19553C41.1083 8.47643 41.4415 7.84263 41.8917 7.29444C42.3418 6.74609 42.9134 6.3146 43.6068 5.99996C44.3 5.68532 45.1238 5.55503 46.0781 5.60893V5.06964C45.2498 5.05184 44.5251 5.1415 43.9039 5.33929C43.2826 5.53707 42.7469 5.80671 42.2968 6.14838C41.8466 6.48988 41.4865 6.88981 41.2165 7.34834C40.9466 7.80613 40.7463 8.3014 40.6222 8.81794H40.5682V5.39318H40.028V19.2541H40.5682V19.2539ZM46.7533 12.4314H58.3673C58.4035 11.4786 58.309 10.5619 58.0838 9.68092C57.8588 8.79997 57.4986 8.01791 57.0035 7.3349C56.5082 6.65173 55.869 6.10338 55.0857 5.68985C54.3024 5.27633 53.3706 5.06964 52.2903 5.06964C51.5159 5.06964 50.7597 5.23149 50.0214 5.55519C49.2832 5.87873 48.6349 6.35053 48.0768 6.97074C47.5186 7.59095 47.0685 8.35051 46.7264 9.24959C46.3844 10.1483 46.2132 11.173 46.2132 12.3236C46.2132 13.3483 46.3302 14.3056 46.5643 15.1955C46.7984 16.0853 47.1584 16.8585 47.6446 17.5146C48.1309 18.1708 48.7567 18.6787 49.5218 19.0381C50.287 19.3978 51.2099 19.5685 52.2903 19.5506C53.8748 19.5506 55.2073 19.1055 56.2876 18.2158C57.3681 17.3258 58.0073 16.0719 58.2054 14.4539H57.6652C57.4311 15.9821 56.8323 17.1282 55.869 17.8921C54.9056 18.6562 53.6948 19.0381 52.2362 19.0381C51.2459 19.0381 50.4086 18.8674 49.7243 18.5259C49.0402 18.1844 48.4819 17.7168 48.0497 17.1236C47.6177 16.5303 47.298 15.8337 47.091 15.0336C46.8838 14.2338 46.7713 13.3663 46.7533 12.4314ZM57.8272 11.8921H46.7535C46.8073 10.9213 46.9874 10.0495 47.2935 9.27646C47.5997 8.5033 48.0003 7.84263 48.4955 7.29444C48.9906 6.74609 49.5669 6.32819 50.2241 6.04042C50.8813 5.75281 51.5881 5.60893 52.3443 5.60893C53.2447 5.60893 54.0367 5.77531 54.7212 6.10791C55.4053 6.44052 55.977 6.89451 56.4363 7.46972C56.8954 8.04494 57.242 8.71468 57.476 9.47861C57.7101 10.2427 57.8272 11.0473 57.8272 11.8921ZM69.5764 9.49221H70.1165C70.1165 7.94605 69.6663 6.82248 68.7662 6.12135C67.8656 5.42021 66.6412 5.06964 65.0928 5.06964C64.2284 5.06964 63.4992 5.1776 62.9049 5.39334C62.3108 5.60893 61.8246 5.88763 61.4464 6.22914C61.0684 6.57064 60.7983 6.94824 60.6362 7.36177C60.4741 7.7753 60.393 8.17086 60.393 8.5483C60.393 9.30333 60.5281 9.90557 60.7983 10.355C61.0684 10.8045 61.4915 11.1551 62.0676 11.4067C62.4638 11.5864 62.9138 11.7482 63.4182 11.8923C63.9223 12.036 64.5075 12.1888 65.1738 12.3505C65.7679 12.4945 66.3531 12.6383 66.9295 12.782C67.5056 12.9259 68.0143 13.1191 68.4554 13.3617C68.8966 13.6045 69.2567 13.9146 69.5358 14.2922C69.8148 14.6696 69.9544 15.1641 69.9544 15.7752C69.9544 16.3686 69.815 16.8719 69.5358 17.2853C69.2591 17.6967 68.8948 18.042 68.469 18.2967C68.0368 18.5573 67.555 18.746 67.024 18.8629C66.4927 18.9797 65.9751 19.0381 65.4709 19.0381C63.8323 19.0381 62.5763 18.6741 61.703 17.9461C60.8298 17.218 60.3932 16.0719 60.3932 14.5078H59.8529C59.8529 16.2517 60.3256 17.5281 61.2709 18.3372C62.2163 19.1461 63.6163 19.5506 65.4709 19.5506C66.0651 19.5506 66.6637 19.4831 67.2671 19.3483C67.8702 19.2134 68.4105 18.9933 68.8876 18.6876C69.3606 18.3862 69.7579 17.9803 70.0489 17.5012C70.3461 17.0157 70.4947 16.4225 70.4947 15.7213C70.4947 15.0561 70.3641 14.5169 70.1031 14.1033C69.8419 13.69 69.4999 13.3483 69.0766 13.0787C68.6535 12.809 68.1764 12.5978 67.6452 12.445C67.1109 12.2913 66.5752 12.1429 66.038 11.9999C65.3769 11.8267 64.7152 11.656 64.0528 11.4877C63.4858 11.3438 62.9591 11.173 62.4729 10.9752C62.0047 10.7775 61.6311 10.4944 61.3519 10.1259C61.0728 9.75732 60.9333 9.23147 60.9333 8.5483C60.9333 8.42254 60.9693 8.19773 61.0413 7.87419C61.1133 7.55049 61.2845 7.22242 61.5546 6.88981C61.8246 6.55737 62.2387 6.2607 62.797 5.99996C63.3551 5.73938 64.1204 5.60893 65.0928 5.60893C65.759 5.60893 66.3666 5.68095 66.9158 5.82468C67.4651 5.96856 67.9378 6.19774 68.3338 6.51238C68.73 6.82701 69.0361 7.22695 69.2522 7.71234C69.4682 8.19789 69.5764 8.79107 69.5764 9.49221ZM82.0816 9.49221H82.6218C82.6218 7.94605 82.1718 6.82248 81.2714 6.12135C80.3711 5.42021 79.1467 5.06964 77.598 5.06964C76.7338 5.06964 76.0045 5.1776 75.4104 5.39334C74.8161 5.60893 74.3299 5.88763 73.9519 6.22914C73.5737 6.57064 73.3036 6.94824 73.1415 7.36177C72.9794 7.7753 72.8985 8.17086 72.8985 8.5483C72.8985 9.30333 73.0335 9.90557 73.3038 10.355C73.5737 10.8045 73.9969 11.1551 74.5731 11.4067C74.9693 11.5864 75.4193 11.7482 75.9234 11.8923C76.4276 12.036 77.0128 12.1888 77.6791 12.3505C78.2734 12.4945 78.8586 12.6383 79.4347 12.782C80.011 12.9259 80.5196 13.1191 80.9608 13.3617C81.4019 13.6045 81.7621 13.9146 82.0411 14.2922C82.3203 14.6696 82.4599 15.1641 82.4599 15.7752C82.4599 16.3686 82.3203 16.8719 82.0411 17.2853C81.7644 17.6967 81.4002 18.042 80.9744 18.2967C80.5421 18.5573 80.0605 18.746 79.5292 18.8629C78.9982 18.9797 78.4804 19.0381 77.9762 19.0381C76.3376 19.0381 75.0818 18.6741 74.2085 17.9461C73.335 17.218 72.8985 16.0719 72.8985 14.5078H72.3583C72.3583 16.2517 72.8309 17.5281 73.7763 18.3372C74.7216 19.1461 76.1215 19.5506 77.9762 19.5506C78.5705 19.5506 79.1692 19.4831 79.7724 19.3483C80.3755 19.2134 80.9158 18.9933 81.393 18.6876C81.8661 18.3862 82.2634 17.9803 82.5544 17.5012C82.8515 17.0157 83 16.4225 83 15.7213C83 15.0561 82.8695 14.5169 82.6083 14.1033C82.3474 13.69 82.0053 13.3483 81.582 13.0787C81.1589 12.809 80.6817 12.5978 80.1506 12.445C79.6164 12.2913 79.0806 12.1429 78.5434 11.9999C77.8823 11.8267 77.2206 11.656 76.5583 11.4877C75.991 11.3438 75.4643 11.173 74.9782 10.9752C74.51 10.7775 74.1363 10.4944 73.8574 10.1259C73.5782 9.75732 73.4386 9.23147 73.4386 8.5483C73.4386 8.42254 73.4746 8.19773 73.5468 7.87419C73.6187 7.55049 73.7899 7.22242 74.0598 6.88981C74.3299 6.55737 74.7441 6.2607 75.3022 5.99996C75.8605 5.73938 76.6257 5.60893 77.5982 5.60893C78.2645 5.60893 78.872 5.68095 79.4213 5.82468C79.9705 5.96856 80.443 6.19774 80.8392 6.51238C81.2354 6.82701 81.5415 7.22695 81.7576 7.71234C81.9737 8.19789 82.0818 8.79107 82.0818 9.49221H82.0816Z" fill="white"/>
</svg>
