<svg width="46" height="34" viewBox="0 0 46 34" fill="none" xmlns="http://www.w3.org/2000/svg">
<path d="M39.6051 19.5619C38.1607 19.5637 36.7356 19.8896 35.4376 20.5148C35.0312 19.8494 34.7174 19.1332 34.5045 18.3853C34.3823 17.7991 34.354 17.1975 34.4208 16.6027C34.5612 15.9481 34.7433 15.3029 34.9661 14.6709C34.9579 14.5883 34.8659 14.1977 33.9411 14.1847C33.0163 14.1718 32.2196 14.3582 32.1341 14.5996C31.9735 15.0407 31.8445 15.4923 31.7481 15.9512C30.9827 17.8141 30.0405 19.6014 28.9342 21.2894C28.3143 20.2869 28.0594 19.1059 28.2114 17.9413C28.3518 17.2867 28.534 16.6415 28.7568 16.0095C28.7486 15.9269 28.6566 15.5363 27.7317 15.5234C26.8069 15.5104 26.0102 15.6968 25.9248 15.9382C25.8393 16.1797 25.7309 16.7485 25.5387 17.2898C25.3465 17.8311 23.1026 22.7771 22.5145 24.0525C22.2123 24.7008 21.9511 25.2291 21.7671 25.5856C21.7584 25.6088 21.7474 25.631 21.7343 25.652L21.4829 26.1253V26.1334C21.3565 26.357 21.2218 26.5644 21.1544 26.5644C21.0369 26.1014 21.0426 25.6164 21.1708 25.1561C21.4994 23.4399 22.3043 20.7724 22.2961 20.6801C22.2961 20.6298 22.4472 20.1663 21.7753 19.9265C21.6195 19.8533 21.4445 19.8296 21.2745 19.8587C21.1045 19.8877 20.9477 19.968 20.8259 20.0886C20.7667 20.0886 20.7257 20.2295 20.7257 20.2295C20.7257 20.2295 21.4567 17.2298 19.331 17.2298C18.5032 17.3941 17.7171 17.72 17.0189 18.1884C16.3207 18.6568 15.7245 19.2582 15.2654 19.9573C14.6937 20.2636 13.4765 20.9183 12.1738 21.6233C11.681 21.8971 11.1652 22.171 10.6872 22.4336C10.6543 22.4011 10.6198 22.359 10.587 22.3266C7.99974 19.6072 3.24416 17.6885 3.44949 14.0502C3.52506 12.7246 3.98665 9.24356 12.5812 5.01544C19.6546 1.57655 25.2841 2.52946 26.2582 4.64271C27.6529 7.66025 23.2423 13.2626 15.9339 14.0745C15.1254 14.2364 14.2904 14.2168 13.4905 14.0174C12.6907 13.818 11.9465 13.4437 11.313 12.9223C10.927 12.5074 10.8679 12.4831 10.725 12.5658C10.4901 12.6906 10.6412 13.0633 10.725 13.2788C11.0038 13.7766 11.3809 14.2142 11.834 14.5657C12.2871 14.9173 12.8071 15.1757 13.3631 15.3256C16.2382 15.9386 19.2358 15.6455 21.933 14.4878C26.3683 12.7975 29.8179 8.09781 28.806 4.16139C27.7892 0.166634 21.069 -1.15091 14.7085 1.08227C10.7246 2.40479 7.04342 4.48794 3.87495 7.21296C0.371095 10.446 -0.182492 13.2545 0.0441991 14.4327C0.865544 18.6106 6.69873 21.3283 9.033 23.3459C8.92753 23.4051 8.82129 23.4629 8.71431 23.5194C7.54636 24.0914 3.09467 26.3878 1.97929 28.8154C0.719344 31.5704 2.18134 33.5395 3.14724 33.8052C4.60267 34.1489 6.13057 34.0357 7.51763 33.4814C8.90469 32.9271 10.0817 31.9593 10.8843 30.7132C11.5678 29.6796 11.9879 28.4983 12.1089 27.27C12.2299 26.0417 12.0481 24.8028 11.5792 23.6587C11.5712 23.6402 11.5601 23.6232 11.5463 23.6085L12.4613 23.0786C13.0173 22.7543 13.5803 22.442 14.15 22.1418C13.808 23.1149 13.6072 24.1308 13.5537 25.1594C13.4376 26.7359 13.9266 28.2977 14.9237 29.535C15.0754 29.6638 15.2515 29.7617 15.4419 29.8229C15.6322 29.8841 15.833 29.9074 16.0325 29.8915C17.0181 29.8915 17.4698 29.0812 17.9643 28.1186C18.5688 26.942 19.1142 25.5743 19.1142 25.5743C19.1142 25.5743 18.4341 29.2708 20.2821 29.2708C20.954 29.2708 21.6341 28.4087 21.938 27.9744V27.9825L21.9889 27.8998L22.0973 27.7264V27.7102C22.3667 27.2467 22.9712 26.1933 23.8698 24.4447C25.0295 22.1905 26.1465 19.3723 26.1465 19.3723C26.2543 19.9916 26.403 20.6033 26.5917 21.2035C26.8623 21.9311 27.1822 22.6398 27.5494 23.3249C27.28 23.6976 27.1124 23.9051 27.1124 23.9051L27.1206 23.9132C26.9022 24.1951 26.6673 24.5014 26.4061 24.7996C25.629 25.6425 24.908 26.534 24.2476 27.4687C24.1495 27.6257 24.1157 27.8137 24.1533 27.9944C24.1908 28.1751 24.2968 28.3348 24.4496 28.4411C24.7954 28.6186 25.1896 28.6827 25.5749 28.6242C26.1555 28.5919 26.7264 28.4631 27.2636 28.2434C27.7827 28.0632 28.2724 27.8093 28.7173 27.4898C29.176 27.1763 29.5453 26.7516 29.7895 26.2567C30.0337 25.7617 30.1448 25.213 30.112 24.6635C30.0603 23.9712 29.8811 23.2941 29.583 22.6653C29.6668 22.5486 29.7473 22.4336 29.8262 22.3169C30.7601 20.9416 31.6018 19.5076 32.346 18.0239C32.4538 18.6433 32.6025 19.255 32.7912 19.8552C33.0144 20.4839 33.2891 21.0936 33.6126 21.6784C32.5381 22.4939 31.6919 23.5658 31.1535 24.7931C30.6245 26.3019 31.0352 26.9809 31.8105 27.1381C32.2348 27.167 32.659 27.0813 33.0376 26.8902C33.5943 26.7097 34.1187 26.4439 34.5916 26.1026C35.0902 25.8122 35.5079 25.4042 35.807 24.9151C36.106 24.4259 36.2772 23.8711 36.3049 23.3006C36.2676 22.731 36.1373 22.1712 35.9189 21.6427C37.3367 21.0963 38.874 20.922 40.3804 21.1371C44.3787 21.6006 45.1689 24.0623 45.0177 25.0994C44.9469 25.4671 44.797 25.8156 44.5783 26.1214C44.3596 26.4272 44.077 26.6832 43.7496 26.8724C43.472 27.0458 43.38 27.1041 43.4046 27.2289C43.4375 27.412 43.5689 27.4023 43.8071 27.3699C44.4097 27.1851 44.9414 26.8245 45.332 26.3355C45.7226 25.8466 45.9538 25.2523 45.9951 24.6311C46.1216 22.2002 43.7693 19.5343 39.61 19.5586L39.6051 19.5619ZM8.75538 29.817C7.42809 31.2431 5.58006 31.7811 4.78171 31.3257C3.92423 30.8396 4.26098 28.7328 5.89053 27.2224C6.85717 26.364 7.90196 25.5952 9.01164 24.926C9.20548 24.8093 9.49131 24.644 9.83298 24.4398L9.92498 24.3896L10.127 24.2648C10.4182 25.2271 10.4445 26.2485 10.2035 27.2242C9.96247 28.1999 9.46267 29.0947 8.75538 29.817ZM18.416 23.3346C17.9544 24.4447 16.9885 27.2888 16.4005 27.13C15.8962 26.9971 15.5791 24.8418 16.3003 22.7123C16.6644 21.6872 17.1947 20.7272 17.8707 19.8698C18.5934 19.0741 19.3918 18.8083 19.584 19.1324C19.4086 20.5826 19.015 21.999 18.416 23.3346ZM26.388 27.0976C26.1942 27.1965 26.0102 27.2597 25.9264 27.2143C25.8673 27.1819 26.0102 27.0522 26.0102 27.0522C26.0102 27.0522 27.0106 25.9908 27.4048 25.5111C27.6315 25.2291 27.8976 24.8985 28.1868 24.5241V24.6311C28.1868 25.8984 26.9432 26.7524 26.3897 27.1009L26.388 27.0976ZM32.5382 25.7136C32.3953 25.6148 32.42 25.2826 32.8996 24.247C33.2331 23.5819 33.6991 22.99 34.2696 22.5065C34.3571 22.7518 34.4026 23.0097 34.4043 23.2698C34.4108 23.8233 34.2314 24.3633 33.8941 24.8057C33.5569 25.2481 33.0807 25.5679 32.5399 25.7153L32.5382 25.7136Z" fill="#CD6799"/>
</svg>
