<svg width="77" height="64" viewBox="0 0 77 64" fill="none" xmlns="http://www.w3.org/2000/svg">
<path d="M0 9.90488H18.0018V15.2382H0V9.90488ZM0 0H18.0018V5.33328H0V0ZM32.2979 19.7334H0V25.0667H31.0875C34.4912 25.0667 42.433 25.1427 45.3831 29.9428V26.9715C43.9459 22.2475 39.7103 19.7334 32.2976 19.7334H32.2979ZM32.3731 29.638H0V34.9713H31.0875C38.6513 34.9713 43.4166 35.2761 45.3831 36.3429V33.9809C43.8701 30.2476 37.5167 29.638 32.3734 29.638H32.3731ZM32.2979 54.7808H0V49.4475H31.0875C34.4912 49.4475 42.433 49.3714 45.3831 44.5714V47.5427C43.9459 52.2667 39.7103 54.7808 32.2976 54.7808H32.2979ZM32.3731 44.8762H0V39.5429H31.0875C38.6513 39.5429 43.4166 39.2381 45.3831 38.1713V40.5333C43.8701 44.2666 37.5167 44.8762 32.3734 44.8762H32.3731ZM53.2494 64H77V60.7236H53.9301C51.8878 60.7236 47.0473 60.6476 45.3076 57.8284V59.6571C46.1395 62.476 48.7112 64 53.2494 64ZM53.1739 57.9808H76.9245V54.7047H53.9301C49.3161 54.7047 46.4418 54.5523 45.3073 53.8667V55.3143C46.2147 57.5999 50.0723 57.9808 53.1736 57.9808H53.1739Z" fill="#010101"/>
</svg>
